<svg id="layer_1" data-name="layer 1" xmlns="http://www.w3.org/2000/svg" viewBox="0 0 156.99 24.45"><defs><style>.cls-1{fill:#e50020;}</style></defs><title>logo</title><path class="cls-1" d="M12.48,19.5a5.74,5.74,0,1,1-5.73-5.75A5.74,5.74,0,0,1,12.48,19.5Z" transform="translate(-1 -0.77)"/><path class="cls-1" d="M80,.77c-34.52.39-56.35,9.4-66.07,14.36A8.33,8.33,0,0,1,15,18.08C25.6,14.24,47.92,7.62,80,7.4c31.86.34,53.64,6.84,64,10.65a8.43,8.43,0,0,1,1.13-3C135.61,10.16,114.32,1.28,80,.77Z" transform="translate(-1 -0.77)"/><path class="cls-1" d="M158,19.5a5.74,5.74,0,1,1-5.74-5.75A5.74,5.74,0,0,1,158,19.5Z" transform="translate(-1 -0.77)"/></svg>